# xmcd CD database file
#
# Track frame offsets:
#	150
#	18338
#	61365
#	85655
#	100249
#	114956
#	134912
#	144457
#	157427
#	171734
#	184880
#	197049
#	210580
#	225066
#	239513
#
# Disc length: 3383 seconds
#
# Revision: 1
# Processed by: cddbd v1.5.2PL0 Copyright (c) Steve Scherf et al.
# Submitted via: CDex 1.91
#
DISCID=d70d350f
DTITLE=Various Artist - Jazz [CD2) Les grands classiques
DYEAR=2013
DGENRE=Jazz
TTITLE0=Louis Armstrong - When you're smiling
TTITLE1=Art Blakey and Jazz Messengers - Moanin'
TTITLE2=The Dave Brubeck quartet - Take five
TTITLE3=Cab Calloway - Minnie the mooche
TTITLE4=Stan Getz - I've got you under my skin
TTITLE5=Artie Shaw and Gramercy five - Summertime
TTITLE6=Frank Sinatra - All of me
TTITLE7=Nat king Cole - For sentimental reasons
TTITLE8=Thelonious Monk - Round Midnight
TTITLE9=Billy Eckstine - What's new
TTITLE10=Art Tatum - The Sheik of Araby
TTITLE11=Dexter Gordon - If I had you
TTITLE12=Oscar Peterson - It ain't necessarily so
TTITLE13=Miles Davis and Charly Parker - Bird of paradise
TTITLE14=Lester Young - These foolish things
EXTD=YEAR: 2013
EXTT0=
EXTT1=
EXTT2=
EXTT3=
EXTT4=
EXTT5=
EXTT6=
EXTT7=
EXTT8=
EXTT9=
EXTT10=
EXTT11=
EXTT12=
EXTT13=
EXTT14=
PLAYORDER=
